<?xml version="1.0" encoding="utf-8"?>
<!-- Generator: Adobe Illustrator 16.0.0, SVG Export Plug-In . SVG Version: 6.00 Build 0)  -->
<!DOCTYPE svg PUBLIC "-//W3C//DTD SVG 1.1//EN" "http://www.w3.org/Graphics/SVG/1.1/DTD/svg11.dtd">
<svg version="1.1" id="图层_1" xmlns="http://www.w3.org/2000/svg" xmlns:xlink="http://www.w3.org/1999/xlink" x="0px" y="0px"
	 width="30px" height="30px" viewBox="0 0 30 30" enable-background="new 0 0 30 30" xml:space="preserve">
<g>
	<path fill="#FFFFFF" d="M15,2.499C8.096,2.499,2.5,8.098,2.5,15c0,6.904,5.596,12.5,12.5,12.5c6.901,0,12.5-5.596,12.5-12.5
		C27.5,8.098,21.901,2.499,15,2.499z M23.197,16.311h-6.886v6.887c0,0.725-0.588,1.311-1.312,1.311
		c-0.725,0-1.312-0.586-1.312-1.311v-6.887H6.802c-0.724,0-1.312-0.588-1.312-1.311c0-0.725,0.588-1.313,1.312-1.313h6.887V6.802
		c0-0.725,0.587-1.312,1.312-1.312c0.724,0,1.312,0.587,1.312,1.312v6.886h6.886c0.725,0,1.312,0.588,1.312,1.313
		C24.509,15.723,23.922,16.311,23.197,16.311z"/>
</g>
</svg>
