<?xml version="1.0" encoding="utf-8"?>
<!-- Generator: Adobe Illustrator 16.0.0, SVG Export Plug-In . SVG Version: 6.00 Build 0)  -->
<!DOCTYPE svg PUBLIC "-//W3C//DTD SVG 1.1//EN" "http://www.w3.org/Graphics/SVG/1.1/DTD/svg11.dtd">
<svg version="1.1" id="图层_1" xmlns="http://www.w3.org/2000/svg" xmlns:xlink="http://www.w3.org/1999/xlink" x="0px" y="0px"
	 width="30px" height="30px" viewBox="0 0 30 30" enable-background="new 0 0 30 30" xml:space="preserve">
<path fill="#2174FE" d="M21.675,11.705c-0.42-3.45-3.25-5.82-6.669-5.82c-3.43,0-6.25,2.37-6.67,5.82
	c-3.29,0.42-5.82,3.06-5.82,6.67c0,2.81,2.69,5.46,6.12,5.74h12.731c3.43-0.28,6.119-2.931,6.119-5.74
	C27.495,14.775,24.956,12.125,21.675,11.705z M19.415,17.635l-3.79,4.83c-0.25,0.32-0.73,0.39-1.07,0.15
	c-0.06-0.04-0.109-0.091-0.149-0.15l-3.841-4.88c-0.25-0.32-0.18-0.78,0.16-1.021c0.13-0.1,0.29-0.14,0.45-0.14h1.73v-4.89
	c0-0.18,0.149-0.33,0.33-0.33h3.52c0.19,0,0.339,0.15,0.339,0.33v4.89h1.75c0.43,0,0.771,0.32,0.771,0.73
	C19.616,17.335,19.546,17.505,19.415,17.635z"/>
<path d="M19.419,17.639"/>
</svg>
