<?xml version="1.0" encoding="utf-8"?>
<!-- Generator: Adobe Illustrator 16.0.0, SVG Export Plug-In . SVG Version: 6.00 Build 0)  -->
<!DOCTYPE svg PUBLIC "-//W3C//DTD SVG 1.1//EN" "http://www.w3.org/Graphics/SVG/1.1/DTD/svg11.dtd">
<svg version="1.1" id="图层_1" xmlns="http://www.w3.org/2000/svg" xmlns:xlink="http://www.w3.org/1999/xlink" x="0px" y="0px"
	 width="30px" height="30px" viewBox="0 0 30 30" enable-background="new 0 0 30 30" xml:space="preserve">
<path fill="#2174FE" d="M15,2.5C8.096,2.5,2.5,8.099,2.5,15c0,6.905,5.596,12.5,12.5,12.5c6.902,0,12.5-5.595,12.5-12.5
	C27.5,8.099,21.902,2.5,15,2.5z M21.327,9.649l-6.516,5.527L8.298,9.649H21.327z M23.366,20.751c0,0.341-0.302,0.616-0.677,0.616
	H6.934c-0.372,0-0.674-0.275-0.674-0.616V10.266c0-0.084,0.018-0.163,0.052-0.236l7.991,6.779c0.146,0.125,0.327,0.186,0.509,0.186
	c0.181,0,0.362-0.061,0.509-0.186l7.993-6.779c0.034,0.074,0.053,0.152,0.053,0.236V20.751z"/>
</svg>
