<?xml version="1.0" encoding="utf-8"?>
<!-- Generator: Adobe Illustrator 16.0.0, SVG Export Plug-In . SVG Version: 6.00 Build 0)  -->
<!DOCTYPE svg PUBLIC "-//W3C//DTD SVG 1.1//EN" "http://www.w3.org/Graphics/SVG/1.1/DTD/svg11.dtd">
<svg version="1.1" id="图层_1" xmlns="http://www.w3.org/2000/svg" xmlns:xlink="http://www.w3.org/1999/xlink" x="0px" y="0px"
	 width="30px" height="30px" viewBox="0 0 30 30" enable-background="new 0 0 30 30" xml:space="preserve">
<path fill="#2174FE" d="M14.558,8.849v4.572c-0.753-0.225-1.285-0.53-1.6-0.907c-0.318-0.38-0.476-0.853-0.476-1.414
	c0-0.569,0.187-1.062,0.557-1.479C13.408,9.203,13.915,8.946,14.558,8.849z"/>
<path fill="#2174FE" d="M17.31,16.217c0.296,0.365,0.445,0.848,0.445,1.445c0,0.706-0.21,1.297-0.63,1.773
	c-0.419,0.478-0.949,0.756-1.595,0.834v-5.031C16.42,15.527,17.013,15.853,17.31,16.217z"/>
<path fill="#2174FE" d="M14.998,2.501C8.097,2.501,2.5,8.099,2.5,15c0,6.904,5.598,12.499,12.499,12.499
	C21.902,27.499,27.5,21.904,27.5,15C27.5,8.099,21.902,2.501,14.998,2.501z M18.361,20.417c-0.729,0.766-1.671,1.175-2.831,1.229
	v1.671h-0.973v-1.652c-0.826-0.103-1.498-0.288-2.015-0.554c-0.517-0.268-0.963-0.697-1.34-1.29
	c-0.375-0.593-0.596-1.319-0.656-2.177l1.66-0.313c0.129,0.889,0.357,1.539,0.68,1.957c0.467,0.588,1.023,0.915,1.671,0.98v-5.259
	c-0.677-0.128-1.372-0.394-2.083-0.79c-0.527-0.294-0.931-0.703-1.217-1.222c-0.283-0.52-0.428-1.11-0.428-1.771
	c0-1.175,0.417-2.127,1.249-2.857c0.559-0.49,1.385-0.789,2.479-0.899v-0.79h0.973v0.79c0.963,0.092,1.724,0.373,2.287,0.845
	c0.722,0.601,1.157,1.424,1.305,2.471l-1.708,0.257c-0.098-0.65-0.302-1.146-0.611-1.492s-0.731-0.575-1.272-0.685v4.766
	c0.834,0.207,1.386,0.37,1.655,0.485c0.515,0.229,0.932,0.504,1.257,0.827c0.325,0.325,0.574,0.71,0.747,1.156
	c0.176,0.449,0.263,0.932,0.263,1.451C19.452,18.699,19.087,19.653,18.361,20.417z"/>
</svg>
