<?xml version="1.0" encoding="UTF-8"?>
<svg width="19px" height="22px" viewBox="0 0 19 22" version="1.1" xmlns="http://www.w3.org/2000/svg" xmlns:xlink="http://www.w3.org/1999/xlink">
    <!-- Generator: Sketch 56.3 (81716) - https://sketch.com -->
    <title>password</title>
    <desc>Created with Sketch.</desc>
    <defs>
        <linearGradient x1="50%" y1="0%" x2="50%" y2="100%" id="linearGradient-1">
            <stop stop-color="#83BBFD" offset="0%"></stop>
            <stop stop-color="#4C85FB" offset="100%"></stop>
        </linearGradient>
    </defs>
    <g id="PC" stroke="none" stroke-width="1" fill="none" fill-rule="evenodd">
        <g id="LOGIN" transform="translate(-905.000000, -554.000000)" fill="url(#linearGradient-1)">
            <g id="login" transform="translate(566.000000, 351.000000)">
                <g id="password" transform="translate(338.902344, 203.000000)">
                    <path d="M16.2307732,8.25049885 L15.5384653,8.25049885 L15.5384653,5.62577713 C15.5384653,2.47089586 13.2400065,0 9.97428651,0 C6.69671463,0 4.46154399,2.5231386 4.46154399,5.62577713 L4.46154399,8.25049885 L3.76923612,8.25049885 C2.24220524,8.25049885 1,9.48400808 1,11.000975 L1,19.2495238 C1,20.7664976 2.24219596,22 3.76923612,22 L16.2307639,22 C17.7577948,22 19,20.7664908 19,19.2495238 L19,11.000975 C19,9.48400128 17.757804,8.25049885 16.2307639,8.25049885 L16.2307732,8.25049885 Z M5.84616668,5.62577713 C5.84616668,3.28258575 7.45825399,1.37477325 9.97430273,1.37477325 C12.4636413,1.37477325 14.1538519,3.24196838 14.1538519,5.62577713 L14.1538519,8.25049885 L5.84616668,8.25049885 L5.84616668,5.62577713 Z M17.8131972,19.2495238 C17.8131972,20.0080118 17.1841867,20.6252494 16.4107815,20.6252494 L3.7870638,20.6252494 L3.78706386,20.6252494 C3.01189007,20.6231164 2.38464825,20.0078078 2.38464825,19.2495238 L2.38464825,11.000975 C2.38464825,10.242487 3.0136587,9.62524942 3.78706386,9.62524942 L16.4107816,9.62524942 C17.1841867,9.62524942 17.8131972,10.242487 17.8131972,11.000975 L17.8131972,19.2495238 L17.8131972,19.2495238 Z M10.0000093,12.3747733 C9.23550521,12.3747733 8.61539585,12.9910449 8.61539585,13.7504988 C8.61539585,14.2593826 8.89429671,14.703446 9.30770372,14.9414407 L9.30770372,17.1878787 C9.30770372,17.5671215 9.61726467,17.8747733 10.0000116,17.8747733 C10.3827585,17.8747733 10.6923195,17.5671215 10.6923195,17.1878787 L10.6923195,14.9414407 C11.1057265,14.703446 11.3846273,14.2593826 11.3846273,13.7514671 C11.3846273,12.9910449 10.764518,12.3747733 10.0000139,12.3747733 L10.0000093,12.3747733 Z" id="形状"></path>
                </g>
            </g>
        </g>
    </g>
</svg>