<?xml version="1.0" encoding="utf-8"?>
<!-- Generator: Adobe Illustrator 16.0.0, SVG Export Plug-In . SVG Version: 6.00 Build 0)  -->
<!DOCTYPE svg PUBLIC "-//W3C//DTD SVG 1.1//EN" "http://www.w3.org/Graphics/SVG/1.1/DTD/svg11.dtd">
<svg version="1.1" id="图层_1" xmlns="http://www.w3.org/2000/svg" xmlns:xlink="http://www.w3.org/1999/xlink" x="0px" y="0px"
	 width="30px" height="30px" viewBox="0 0 30 30" enable-background="new 0 0 30 30" xml:space="preserve">
<g>
	<path fill="#2174FE" d="M21.68,11.7C21.26,8.25,18.43,5.88,15,5.88c-3.42,0-6.25,2.37-6.67,5.82c-3.29,0.42-5.83,3.07-5.83,6.68
		c0,2.811,2.69,5.47,6.13,5.74h12.74c3.439-0.28,6.13-2.94,6.13-5.75C27.5,14.77,24.97,12.12,21.68,11.7z M18.85,17.54h-1.76v4.89
		c0,0.181-0.149,0.33-0.33,0.33h-3.52c-0.19,0-0.34-0.149-0.34-0.33v-4.89h-1.73c-0.15,0-0.31-0.04-0.45-0.15
		c-0.34-0.239-0.41-0.689-0.16-1.02l3.84-4.88c0.04-0.06,0.1-0.11,0.16-0.15c0.33-0.24,0.81-0.17,1.07,0.15l3.79,4.83
		c0.13,0.13,0.2,0.31,0.2,0.489C19.62,17.22,19.28,17.54,18.85,17.54z"/>
	<path d="M19.423,17.64"/>
</g>
</svg>
