<?xml version="1.0" encoding="UTF-8"?>
<svg width="19px" height="19px" viewBox="0 0 19 19" version="1.1" xmlns="http://www.w3.org/2000/svg" xmlns:xlink="http://www.w3.org/1999/xlink">
    <!-- Generator: Sketch 56.3 (81716) - https://sketch.com -->
    <title>User, person, avtar,</title>
    <desc>Created with Sketch.</desc>
    <defs>
        <linearGradient x1="50%" y1="0%" x2="50%" y2="100%" id="linearGradient-1">
            <stop stop-color="#83BBFD" offset="0%"></stop>
            <stop stop-color="#4C85FB" offset="100%"></stop>
        </linearGradient>
        <linearGradient x1="50%" y1="0%" x2="50%" y2="100%" id="linearGradient-2">
            <stop stop-color="#83BBFD" offset="0%"></stop>
            <stop stop-color="#4C85FB" offset="100%"></stop>
        </linearGradient>
    </defs>
    <g id="PC" stroke="none" stroke-width="1" fill="none" fill-rule="evenodd">
        <g id="LOGIN" transform="translate(-905.000000, -481.000000)" fill="url(#linearGradient-2)">
            <g id="login" transform="translate(566.000000, 351.000000)">
                <g id="User,-person,-avtar," transform="translate(338.902344, 130.000000)">
                    <path d="M18.9373072,16.1688977 L18.937307,16.1688972 C18.1528807,12.8631676 15.7100673,10.2460912 12.5386169,9.31377387 L12.5386168,9.31377397 C13.9854033,8.40071395 14.8680886,6.77689133 14.8690703,5.02664065 C14.8690499,2.25532057 12.6847845,0 9.99964766,0 C7.31451085,0 5.13024589,2.25532057 5.13024589,5.02661909 L5.13024567,5.02620174 C5.13107356,6.77645243 6.01362863,8.4003548 7.46032324,9.31352908 L7.46032343,9.31352902 C4.28893571,10.2460037 1.84627685,12.8631599 1.0619884,16.1688895 L1.06198835,16.1688898 C0.902989315,16.8397581 1.05367931,17.548809 1.47014251,18.0894013 C1.90950195,18.668866 2.5689693,19 3.27925487,19 L16.719163,19 L16.7191629,19 C17.4263405,19.0022483 18.0945554,18.6659105 18.5282544,18.0894013 C18.948899,17.5375302 19.0968212,16.8375808 18.9373067,16.1688898 L18.9373072,16.1688977 Z M6.19964306,5.02664101 C6.19964306,2.86330615 7.90448719,1.1037642 9.99964793,1.1037642 C12.0948087,1.1037642 13.7996319,2.86330615 13.7996319,5.02664101 C13.7996319,7.18997587 12.0957277,8.94859086 9.99964793,8.94859086 C7.90356816,8.94859086 6.19964306,7.1890489 6.19964306,5.02664101 L6.19964306,5.02664101 Z M17.6869865,17.4097239 L17.6869865,17.4097239 C17.4532706,17.716021 17.0969122,17.8955128 16.7191634,17.8972029 L3.27923432,17.8972029 L3.27923427,17.8972029 C2.90148541,17.8955131 2.54512699,17.7160208 2.31141117,17.4097239 L2.31141116,17.4097239 C2.09624096,17.1364464 2.01771812,16.7748307 2.099303,16.432912 C2.9967367,12.6764804 6.24509325,10.0523331 9.99964786,10.0523331 C13.7542025,10.0523331 17.002559,12.6764804 17.8990737,16.4328905 L17.8990737,16.4328905 C17.9808077,16.7748027 17.9022784,17.1364874 17.6869864,17.4097024 L17.6869865,17.4097239 Z" id="形状"></path>
                </g>
            </g>
        </g>
    </g>
</svg>